<svg xmlns="http://www.w3.org/2000/svg" width="64" height="64" viewBox="0 0 64 64">
  <rect width="64" height="64" fill="none"/>
  <path d="M38 14c-2 3-6 4-10 3 2-5 6-8 11-8 1 2 1 4-1 5z" fill="#2e7d32"/>
  <path d="M32 18c-9 0-16 7-16 17 0 12 7 21 16 21s16-9 16-21c0-10-7-17-16-17z" fill="#d32f2f"/>
  <path d="M24 33c2-4 6-7 10-7" stroke="#ffebee" stroke-width="4" stroke-linecap="round" opacity="0.6"/>
  <path d="M33 11c1-2 3-4 6-5" stroke="#5d4037" stroke-width="4" stroke-linecap="round"/>
</svg>

